<svg version="1.1" xmlns="http://www.w3.org/2000/svg" xmlns:xlink="http://www.w3.org/1999/xlink" width="65.38577" height="56.24492" viewBox="0,0,65.38577,56.24492"><g transform="translate(-212.98924,-151.87754)"><g data-paper-data="{&quot;isPaintingLayer&quot;:true}" fill-rule="nonzero" stroke-linejoin="miter" stroke-miterlimit="10" stroke-dasharray="" stroke-dashoffset="0" style="mix-blend-mode: normal"><path d="M231.64365,151.95507c0.27875,0.1487 0.2703,0.079 0.29986,2.98333c0.01689,1.44519 0.04646,2.70916 0.06758,2.81139c0.10136,0.4461 0.15627,0.6041 0.397,1.11991c0.1436,0.3067 0.37589,0.80392 0.51948,1.11062c0.40545,0.86433 0.63352,1.90989 0.73488,3.35973c0.03379,0.48793 0.06758,0.66451 0.1436,0.83645c0.19005,0.42287 0.67575,0.64128 1.34305,0.6041c0.58706,-0.03253 0.65886,-0.09759 1.33038,-1.17567c0.76444,-1.22679 1.33461,-1.76118 1.95968,-1.8216c0.30831,-0.03253 0.94605,0.06041 1.16567,0.16729c0.09292,0.04647 0.3421,0.23699 0.54905,0.42287c0.47303,0.41822 0.64196,0.50651 0.97139,0.51116c0.89959,0.00465 1.95968,-0.83645 2.13284,-1.68219c0.04646,-0.22305 0.04223,-0.2974 -0.03801,-0.63663c-0.05068,-0.20911 -0.21117,-0.71098 -0.35899,-1.11062c-0.30831,-0.84574 -0.40545,-1.25932 -0.40545,-1.75189c0,-0.46469 0.08869,-0.92009 0.32521,-1.66825c0.55327,-1.75654 1.05164,-2.4257 2.00614,-2.70916c0.37589,-0.11153 1.34728,-0.10688 1.72316,0.00465c0.78556,0.23235 1.29237,0.71563 1.56267,1.49166c0.08869,0.24164 0.10136,0.36246 0.10136,0.88292c0.00422,0.7528 -0.01689,0.84109 -0.68842,2.77886c-0.57016,1.64966 -0.81512,2.45358 -0.93338,3.10415c-0.09714,0.52975 -0.10981,1.21285 -0.02534,1.56601c0.24074,0.9805 1.36417,1.90524 2.21308,1.80765c0.29564,-0.03253 0.69687,-0.25093 1.03474,-0.55763c0.1436,-0.13011 0.59128,-0.61339 0.99673,-1.06879c0.78556,-0.88292 1.08542,-1.15708 1.47398,-1.36155c0.31253,-0.16264 0.67997,-0.17194 1.03474,-0.02323c0.46458,0.19982 0.58706,0.39499 0.78978,1.28255c0.13515,0.58551 0.16049,1.00374 0.08025,1.42661c-0.06758,0.36711 -0.38011,1.04091 -0.65041,1.39872c-0.4688,0.62269 -1.19101,1.14779 -1.92167,1.40337c-1.28815,0.4461 -1.71894,0.65522 -2.09905,1.02232c-0.61662,0.59481 -0.63774,1.46843 -0.05068,2.07718c0.47725,0.49257 1.30082,0.73421 2.17507,0.63663c1.00518,-0.11153 1.54156,-0.42287 3.12112,-1.80765c2.11172,-1.84948 4.13475,-3.4062 5.12726,-3.94989c1.57957,-0.86433 3.91091,-1.21285 5.38911,-0.80857c0.81935,0.22305 1.41485,0.79927 1.68093,1.63572c0.06758,0.21376 0.08869,0.38105 0.08869,0.84574c0,0.5344 -0.01267,0.61804 -0.13937,1.01768c-0.22384,0.73421 -0.50259,1.22214 -0.77711,1.38478c-0.19428,0.11617 -0.65463,0.09294 -1.63447,-0.07435c-1.03897,-0.17658 -1.64292,-0.23699 -2.36935,-0.23699c-2.0906,0 -3.98693,0.59481 -6.51255,2.03535c-1.71894,0.9805 -2.14129,1.44519 -2.17507,2.37923c-0.01267,0.34387 0,0.43216 0.08869,0.65986c0.1436,0.35781 0.38433,0.62734 0.94605,1.06879c0.6842,0.53904 0.95872,0.82251 1.11077,1.16638c0.23229,0.5251 0.24918,1.30579 0.03801,1.76583c-0.13093,0.27882 -0.42657,0.6041 -0.97984,1.06415c-0.84469,0.71098 -1.14455,1.17567 -1.14455,1.78442c-0.00422,0.47863 0.1985,0.91544 0.6124,1.33831c0.35055,0.35781 1.07698,0.77604 1.70627,0.98515c0.33788,0.11617 0.44768,0.13011 1.01363,0.13011c0.54482,0 0.71376,-0.01859 1.2248,-0.13476c0.52793,-0.12547 0.67153,-0.13941 1.33038,-0.13941c0.64619,0 0.78134,0.01394 1.07698,0.10688c0.76022,0.24164 1.63447,0.84109 2.306,1.5846c0.6842,0.74816 1.11921,1.55672 1.44864,2.67663c0.21117,0.71563 0.26608,1.02697 0.32521,1.73795c0.05913,0.72957 0.02956,3.00191 -0.04646,3.53631c-0.11403,0.80392 -0.32943,1.29649 -0.79823,1.82624c-0.32943,0.37175 -0.6673,0.55298 -1.0981,0.58087c-0.37166,0.02323 -0.61662,-0.04182 -1.03897,-0.28811c-0.34632,-0.19982 -1.03897,-0.95727 -1.35995,-1.49166c-0.66308,-1.10597 -0.99673,-2.01677 -1.40641,-3.82907c-0.25341,-1.1385 -0.40545,-1.64036 -0.63774,-2.15153c-0.4688,-1.02697 -1.07698,-1.64036 -2.25532,-2.2677c-0.89115,-0.47399 -1.70627,-0.74351 -2.26799,-0.74816c-0.28297,-0.00465 -0.37166,0.01394 -0.57439,0.12547c-0.32098,0.17194 -0.91226,0.82715 -1.0981,1.2082c-0.29986,0.63198 -0.33788,1.45449 -0.09714,2.13294c0.17738,0.50651 0.33365,0.78533 1.11499,1.98424c1.92167,2.94615 2.37358,3.92665 2.5214,5.49731c0.09292,0.99444 -0.10559,1.43125 -0.83624,1.84948c-0.40967,0.23699 -0.80668,0.35781 -1.16567,0.35781c-0.87848,0 -1.55423,-0.50651 -1.71049,-1.2779c-0.02534,-0.13011 -0.08447,-0.6738 -0.13093,-1.2082c-0.19005,-2.1887 -0.38011,-3.33185 -0.67997,-4.05677c-0.26608,-0.65522 -0.84047,-1.33831 -1.37684,-1.64966c-1.07698,-0.62269 -2.51295,-0.40428 -2.9184,0.4461c-0.10981,0.23235 -0.11403,0.26487 -0.11403,0.98515c0,0.40893 0.01689,1.06879 0.03801,1.46378c0.04223,0.80392 0.01267,0.99444 -0.17738,1.22214c-0.26608,0.31134 -0.82779,0.59016 -1.18256,0.59016c-0.27452,0 -0.51104,-0.14405 -0.81935,-0.50187c-0.60818,-0.71098 -1.11499,-1.80765 -1.61758,-3.49449c-0.30409,-1.03162 -0.48147,-1.36155 -0.83202,-1.55207c-0.24074,-0.13476 -0.45191,-0.15335 -0.79401,-0.0697c-0.45613,0.10688 -0.72643,0.50187 -0.92916,1.34761c-0.09292,0.3764 -0.10559,0.52975 -0.10136,1.13385c0.00422,1.0595 0.1985,1.95171 0.92071,4.25194c0.51526,1.64966 0.70109,2.13759 1.65137,4.32164c0.9376,2.15617 1.07698,2.61157 1.08542,3.46196c0.01267,1.06415 -0.25341,1.63572 -0.91226,1.97959c-0.31253,0.16264 -0.62507,0.18123 -0.86581,0.04647c-0.42234,-0.23699 -1.01363,-1.24538 -1.31349,-2.22588c-0.23651,-0.78533 -0.33788,-1.57531 -0.4857,-3.81977c-0.18583,-2.78816 -0.54905,-4.90715 -1.2248,-7.13303c-0.47725,-1.57995 -1.0981,-3.05303 -1.44019,-3.42014c-0.17738,-0.19052 -0.20273,-0.20446 -0.47303,-0.21841c-0.72221,-0.04647 -1.3684,0.58087 -1.64714,1.5846c-0.09292,0.32993 -0.10559,0.47399 -0.10981,1.07809c-0.00422,0.82715 0,0.84574 0.54482,1.93312c0.43924,0.87362 0.71376,1.5846 0.78978,2.01677c0.07602,0.4461 0.07602,2.15617 -0.00422,2.43964c-0.16894,0.64128 -0.78978,0.93403 -1.98924,0.93403c-0.70954,0 -1.01363,-0.05112 -1.31349,-0.21841c-0.49414,-0.27417 -0.80245,-1.01303 -0.80245,-1.93777c0,-0.69704 0.09292,-1.18032 0.51526,-2.65804c0.37166,-1.29649 0.47303,-1.8913 0.47725,-2.71845c0,-0.73421 -0.0549,-1.06415 -0.26185,-1.52419c-0.24918,-0.56228 -0.756,-1.07809 -1.06431,-1.07809c-0.756,0 -1.97235,3.07162 -2.82548,7.14697c-0.3421,1.62178 -0.53638,2.84857 -0.9545,6.09677c-0.40123,3.10415 -0.54482,3.81048 -0.93338,4.64693c-0.35477,0.7621 -0.82779,1.2779 -1.51622,1.64966c-0.51104,0.27882 -0.84047,0.36711 -1.33038,0.37175c-0.35899,0 -0.42657,-0.01394 -0.64619,-0.13476c-0.18583,-0.09759 -0.27875,-0.18588 -0.37166,-0.34387c-0.30831,-0.53904 -0.43924,-1.20355 -0.40545,-2.10041c0.03801,-1.03626 0.1985,-1.49631 1.153,-3.28538c2.47494,-4.64228 3.21826,-6.32911 4.14742,-9.4472c0.53215,-1.77977 1.48665,-5.51125 1.48665,-5.80401c0,-0.12082 -0.03379,-0.19517 -0.14782,-0.31134c-0.4688,-0.48328 -1.13188,-0.04647 -1.41485,0.93403c-0.08025,0.26952 -0.27452,0.6831 -0.36744,0.77604c-0.16471,0.16264 -0.4857,0.27882 -0.84469,0.3067c-0.30409,0.01859 -0.397,0.00465 -0.70109,-0.10223c-0.4139,-0.1487 -0.70954,-0.3764 -0.90382,-0.69704c-0.18583,-0.2974 -0.18161,-0.51581 0.00845,-1.61248c0.08025,-0.46934 0.14782,-0.99444 0.14782,-1.16638c0,-0.49722 -0.24496,-1.1292 -0.60818,-1.56137c-0.31253,-0.3764 -0.60818,-0.5251 -1.03474,-0.5251c-0.52793,-0.00465 -0.96295,0.34852 -1.46131,1.18961c-0.79401,1.33831 -2.03148,3.01586 -2.7748,3.7733c-1.13188,1.1385 -2.01458,1.08273 -2.81281,-0.18123c-0.26608,-0.42752 -0.38856,-0.81321 -0.38856,-1.23144c0,-0.49722 0.0549,-0.64128 0.38856,-1.01768c0.57439,-0.65522 1.34728,-1.15708 2.80859,-1.82624c2.04837,-0.93868 2.75368,-1.51025 3.22249,-2.61157c0.54905,-1.30114 0.14782,-2.66734 -0.74333,-2.53257c-0.59551,0.08829 -1.25014,0.77139 -2.47916,2.58369c-1.08542,1.60319 -1.40218,1.97959 -2.01036,2.41175c-0.15204,0.10688 -0.42657,0.24629 -0.6124,0.31599c-0.31676,0.11617 -0.39278,0.12547 -1.06008,0.12547c-0.81512,0 -1.13188,-0.06041 -1.55845,-0.3067c-0.70954,-0.41358 -1.43597,-1.63107 -1.61758,-2.70916c-0.0718,-0.43681 -0.04646,-1.56137 0.04223,-1.97959c0.2154,-0.9898 1.2079,-2.01212 2.4496,-2.52793c0.52371,-0.21376 1.3684,-0.33923 3.32385,-0.48793c2.28066,-0.17194 3.02399,-0.3067 4.78094,-0.88756c1.57957,-0.51581 2.48338,-0.89686 2.8466,-1.19426c0.32098,-0.26023 0.43924,-0.71563 0.27452,-1.07344c-0.17316,-0.37175 -0.57861,-0.66916 -1.02207,-0.74351c-0.37166,-0.06506 -2.28066,-0.27417 -2.82548,-0.3067c-0.56594,-0.04182 -0.78556,-0.1487 -1.12766,-0.54834c-0.29564,-0.35317 -0.43079,-0.63663 -0.47725,-1.01768c-0.08447,-0.65522 0.16471,-1.13385 0.71799,-1.38943c0.09292,-0.04182 0.29986,-0.06506 0.57016,-0.06506c0.50681,0 0.76867,0.09759 1.45709,0.53904c1.02207,0.65986 1.3515,0.85968 1.73584,1.04556c0.40545,0.19517 1.10654,0.45075 1.38951,0.50187c0.33365,0.06041 1.11077,-0.2974 1.3684,-0.62734c0.31253,-0.40428 0.30831,-0.94333 -0.01689,-1.80765c-0.56172,-1.49631 -1.78652,-3.05303 -2.94796,-3.74542c-1.43175,-0.85503 -2.31022,-1.95171 -2.91418,-3.63854c-0.3421,-0.94333 -0.42657,-1.37549 -0.4688,-2.32811c-0.03801,-0.93868 0.00422,-2.19335 0.09292,-2.53257c0.08869,-0.35317 0.37589,-0.9898 0.57016,-1.2779c0.23229,-0.33923 0.59128,-0.63198 0.88692,-0.72492c0.66308,-0.21376 1.40218,0.16264 1.92589,0.97585c0.46458,0.72027 0.51526,0.92939 0.91226,3.9313c0.45191,3.4062 0.60818,4.07535 1.17834,5.02333c0.59551,0.9898 1.26703,1.75654 1.83297,2.09112c0.22807,0.13476 0.30409,0.158 0.56594,0.158c0.27452,0 0.31253,-0.01394 0.46458,-0.14405c0.08869,-0.079 0.2154,-0.24164 0.28297,-0.35781c0.16471,-0.29276 0.16471,-0.69239 -0.00845,-1.44984c-0.15204,-0.65057 -0.24496,-1.30114 -0.28719,-1.95171c-0.03379,-0.55763 0.02956,-0.96191 0.27875,-1.88201c0.39278,-1.42661 0.47725,-1.9703 0.41812,-2.70451c-0.05913,-0.71563 -0.31253,-1.40802 -0.96295,-2.61157c-0.72643,-1.33831 -0.84047,-1.77977 -0.59973,-2.30023c0.18583,-0.39499 0.76444,-0.88292 1.25014,-1.05485c0.24074,-0.08364 0.48147,-0.079 0.65463,0.01859z" fill="#00ff11" stroke="none" stroke-width="1" stroke-linecap="butt"/><path d="M252.875,177l24.25,-0.5" fill="none" stroke="#00ff11" stroke-width="2.5" stroke-linecap="round"/></g></g></svg>